<svg width="16" height="18" viewBox="0 0 16 18" fill="none" xmlns="http://www.w3.org/2000/svg">
<path d="M14.4124 0.928936L0.270284 15.0711C0.190915 15.1504 0.190915 15.2803 0.270284 15.3597L1.42474 16.5141C1.50411 16.5935 1.63399 16.5935 1.71336 16.5141L15.8555 2.37201C15.9349 2.29264 15.9349 2.16276 15.8555 2.0834L14.701 0.928935C14.6217 0.849566 14.4918 0.849566 14.4124 0.928936Z" fill="white"/>
<path d="M0.270198 2.92894L14.4123 17.0711C14.4917 17.1504 14.6216 17.1504 14.7009 17.0711L15.8554 15.9166C15.9348 15.8372 15.9348 15.7074 15.8554 15.628L1.71327 1.48586C1.6339 1.40649 1.50403 1.40649 1.42466 1.48586L0.270198 2.64032C0.190829 2.71969 0.190829 2.84957 0.270198 2.92894Z" fill="white"/>
</svg>
