<svg width="68" height="14" viewBox="0 0 68 14" fill="none" xmlns="http://www.w3.org/2000/svg">
<path d="M66.9911 13.0534H65.9822V12.0445V11.0356V10.0267V9.01781V8.00891V7.00001V5.9911V4.9822H64.9733H63.9644V5.9911V7.6457H62.9555H61.9466V5.9911V4.9822H62.9555H63.9644V3.9733V2.9644H64.9733H65.9822V1.9555V0.946594H66.9911H68V1.9555V2.9644V3.9733V4.9822V5.9911V7.00001V8.00891V9.01781V10.0267V11.0356V12.0445V13.0534H66.9911ZM58.9199 13.0534H57.911V12.0445V11.0356V10.0267V9.01781V8.00891V7.00001V5.9911V4.9822V3.9733V2.9644V1.9555V0.946594H58.9199H59.9288V1.9555V2.9644H60.9377H61.9466V3.9733V4.9822H60.9377H59.9288V5.9911V7.00001V8.00891V9.01781V10.0267V11.0356V12.0445V13.0534H58.9199Z" fill="white"/>
<path d="M55.4089 13.0534H54.4V12.0445V11.0356V10.0267V9.01781V8.00891V8.2914H53.3911H52.3822H51.3733C51.3733 8.2914 50.7584 8.2914 50.3644 8.2914C49.9704 8.2914 49.3555 8.2914 49.3555 8.2914V8.00891V9.01781V10.0267V11.0356V12.0445V13.0534H48.3466H47.3377V12.0445V11.0356V10.0267V9.01781V8.00891V7.00001V5.9911V4.9822V3.9733V2.9644H48.3466H49.3555V3.9733V6.2736H50.3644H51.3733H52.3822H53.3911H54.4V3.9733V2.9644H55.4089H56.4178V3.9733V4.9822V5.9911V7.00001V8.00891V9.01781V10.0267V11.0356V12.0445V13.0534H55.4089ZM54.4 2.9644H53.3911H52.3822H51.3733H50.3644H49.3555V1.9555V0.946594H50.3644H51.3733H52.3822H53.3911H54.4V1.9555V2.9644Z" fill="white"/>
<path d="M42.8178 13.0534H41.8089H40.8H39.7911H38.7822H37.7733H36.7644H35.7555V12.0445V11.0356V10.0267V9.01781V8.00891V7.00001V5.9911V4.9822V3.9733V2.9644V1.9555V0.946594H36.7644H37.7733H38.7822H39.7911H40.8H41.8089H42.8178H43.8267V1.9555V2.9644H44.8356H45.8445V3.9733V4.9822V5.9911V7.00001V8.00891V9.01781V10.0267V11.0356H44.8356H43.8267V10.0267V9.01781V8.00891V7.00001V5.9911V4.9822V3.9733V2.9644H42.8178H41.8089H40.8H39.7911H38.7822H37.7733V3.9733V4.9822V5.9911V7.00001V8.00891V9.01781V10.0267V11.0356H38.7822H39.7911H40.8H41.8089H42.8178H43.8267V12.0445V13.0534H42.8178Z" fill="white"/>
<path d="M33.2534 13.0534H32.2445V12.0445V11.0356V10.0267V9.01781V8.00891H31.2356H30.2267V7.00001V5.9911H31.2356H32.2445V4.9822V3.9733V2.9644V1.9555V0.946594H33.2534H34.2623V1.9555V2.9644V3.9733V4.9822V5.9911V7.00001V8.00891V9.01781V10.0267V11.0356V12.0445V13.0534H33.2534ZM25.1822 13.0534H24.1733V12.0445V11.0356V10.0267V9.01781V8.00891V7.00001V5.9911V4.9822V3.9733V2.9644V1.9555V0.946594H25.1822H26.1911V1.9555H27.2H28.2089V2.9644V3.9733H29.2178H30.2267V4.9822V5.9911H29.2178H28.2089V4.9822V3.9733H27.2H26.1911V4.9822V5.9911V7.00001V8.00891V9.01781V10.0267V11.0356V12.0445V13.0534H25.1822Z" fill="white"/>
<path d="M21.6712 13.0534H20.6623H19.6534H18.6445H17.6356H16.6267H15.6178H14.6089H13.6H12.5911V12.0445V11.0356V10.0267V9.01781V8.00891V7.00001V5.9911V4.9822V3.9733V2.9644V1.9555V0.946594H13.6H14.6089H15.6178H16.6267H17.6356H18.6445H19.6534H20.6623H21.6712H22.6801V1.9555V2.9644H21.6712H20.6623H19.6534H18.6445H17.6356H16.6267H15.6178H14.6089V3.9733V4.9822H15.6178H16.6267H18.927V5.9911V7.00001H16.6267H15.6178H14.6089V8.00891V9.01781V10.0267V11.0356H15.6178H16.6267H17.6356H18.6445H19.6534H20.6623H21.6712H22.6801V12.0445V13.0534H21.6712Z" fill="white"/>
<path d="M8.07122 13.0534H7.06231H6.05341H5.04451H4.03561H3.02671H2.0178V12.0445V11.0356H3.02671H4.03561H5.04451H6.05341H7.06231H8.07122H9.08012V12.0445V13.0534H8.07122ZM9.08012 11.0356V10.0267V9.01781V8.00891V7.00001H8.07122H5.77092V5.9911V4.9822H8.07122H9.08012H10.089H11.0979V5.9911V7.00001V8.00891V9.01781V10.0267V11.0356H10.089H9.08012ZM2.0178 11.0356H1.0089H0V10.0267V9.01781V8.00891V7.00001V5.9911V4.9822V3.9733V2.9644H1.0089H2.0178V3.9733V4.9822V5.9911V7.00001V8.00891V9.01781V10.0267V11.0356ZM10.089 2.9644H9.08012H8.07122H7.06231H6.05341H5.04451H4.03561H3.02671H2.0178V1.9555V0.946594H3.02671H4.03561H5.04451H6.05341H7.06231H8.07122H9.08012H10.089H11.0979V1.9555V2.9644H10.089Z" fill="white"/>
</svg>
