<svg width="106" height="19" viewBox="0 0 106 19" fill="none" xmlns="http://www.w3.org/2000/svg">
<path d="M103.75 18.75H102.188V17.1875V15.625V14.0625V12.5V10.9375V9.375V7.8125V6.25H100.625H99.0625V7.8125V10.375H97.5H95.9375V7.8125V6.25H97.5H99.0625V4.6875V3.125H100.625H102.188V1.5625V0H103.75H105.312V1.5625V3.125V4.6875V6.25V7.8125V9.375V10.9375V12.5V14.0625V15.625V17.1875V18.75H103.75ZM91.25 18.75H89.6875V17.1875V15.625V14.0625V12.5V10.9375V9.375V7.8125V6.25V4.6875V3.125V1.5625V0H91.25H92.8125V1.5625V3.125H94.375H95.9375V4.6875V6.25H94.375H92.8125V7.8125V9.375V10.9375V12.5V14.0625V15.625V17.1875V18.75H91.25Z" fill="currentColor"/>
<path d="M85.8125 18.75H84.25V17.1875V15.625V14.0625V12.5V10.9375V11.375H82.6875H81.125H79.5625C79.5625 11.375 78.6102 11.375 78 11.375C77.3898 11.375 76.4375 11.375 76.4375 11.375V10.9375V12.5V14.0625V15.625V17.1875V18.75H74.875H73.3125V17.1875V15.625V14.0625V12.5V10.9375V9.375V7.8125V6.25V4.6875V3.125H74.875H76.4375V4.6875V8.25H78H79.5625H81.125H82.6875H84.25V4.6875V3.125H85.8125H87.375V4.6875V6.25V7.8125V9.375V10.9375V12.5V14.0625V15.625V17.1875V18.75H85.8125ZM84.25 3.125H82.6875H81.125H79.5625H78H76.4375V1.5625V0H78H79.5625H81.125H82.6875H84.25V1.5625V3.125Z" fill="currentColor"/>
<path d="M66.3125 18.75H64.75H63.1875H61.625H60.0625H58.5H56.9375H55.375V17.1875V15.625V14.0625V12.5V10.9375V9.375V7.8125V6.25V4.6875V3.125V1.5625V0H56.9375H58.5H60.0625H61.625H63.1875H64.75H66.3125H67.875V1.5625V3.125H69.4375H71V4.6875V6.25V7.8125V9.375V10.9375V12.5V14.0625V15.625H69.4375H67.875V14.0625V12.5V10.9375V9.375V7.8125V6.25V4.6875V3.125H66.3125H64.75H63.1875H61.625H60.0625H58.5V4.6875V6.25V7.8125V9.375V10.9375V12.5V14.0625V15.625H60.0625H61.625H63.1875H64.75H66.3125H67.875V17.1875V18.75H66.3125Z" fill="currentColor"/>
<path d="M51.5 18.75H49.9375V17.1875V15.625V14.0625V12.5V10.9375H48.375H46.8125V9.375V7.8125H48.375H49.9375V6.25V4.6875V3.125V1.5625V0H51.5H53.0625V1.5625V3.125V4.6875V6.25V7.8125V9.375V10.9375V12.5V14.0625V15.625V17.1875V18.75H51.5ZM39 18.75H37.4375V17.1875V15.625V14.0625V12.5V10.9375V9.375V7.8125V6.25V4.6875V3.125V1.5625V0H39H40.5625V1.5625H42.125H43.6875V3.125V4.6875H45.25H46.8125V6.25V7.8125H45.25H43.6875V6.25V4.6875H42.125H40.5625V6.25V7.8125V9.375V10.9375V12.5V14.0625V15.625V17.1875V18.75H39Z" fill="currentColor"/>
<path d="M33.5625 18.75H32H30.4375H28.875H27.3125H25.75H24.1875H22.625H21.0625H19.5V17.1875V15.625V14.0625V12.5V10.9375V9.375V7.8125V6.25V4.6875V3.125V1.5625V0H21.0625H22.625H24.1875H25.75H27.3125H28.875H30.4375H32H33.5625H35.125V1.5625V3.125H33.5625H32H30.4375H28.875H27.3125H25.75H24.1875H22.625V4.6875V6.25H24.1875H25.75H29.3125V7.8125V9.375H25.75H24.1875H22.625V10.9375V12.5V14.0625V15.625H24.1875H25.75H27.3125H28.875H30.4375H32H33.5625H35.125V17.1875V18.75H33.5625Z" fill="currentColor"/>
<path d="M12.5 18.75H10.9375H9.375H7.8125H6.25H4.6875H3.125V17.1875V15.625H4.6875H6.25H7.8125H9.375H10.9375H12.5H14.0625V17.1875V18.75H12.5ZM14.0625 15.625V14.0625V12.5V10.9375V9.375H12.5H8.9375V7.8125V6.25H12.5H14.0625H15.625H17.1875V7.8125V9.375V10.9375V12.5V14.0625V15.625H15.625H14.0625ZM3.125 15.625H1.5625H0V14.0625V12.5V10.9375V9.375V7.8125V6.25V4.6875V3.125H1.5625H3.125V4.6875V6.25V7.8125V9.375V10.9375V12.5V14.0625V15.625ZM15.625 3.125H14.0625H12.5H10.9375H9.375H7.8125H6.25H4.6875H3.125V1.5625V0H4.6875H6.25H7.8125H9.375H10.9375H12.5H14.0625H15.625H17.1875V1.5625V3.125H15.625Z" fill="currentColor"/>
</svg>
