<svg width="128" height="22" viewBox="0 0 128 22" fill="none" xmlns="http://www.w3.org/2000/svg">
<path d="M14.6667 22H12.8333H11H9.16667H7.33333H5.5H3.66667V20.1667V18.3333H5.5H7.33333H9.16667H11H12.8333H14.6667H16.5V20.1667V22H14.6667ZM16.5 18.3333V16.5V14.6667V12.8333V11H14.6667H9.44872V9.16667V7.33333H14.6667H16.5H18.3333H20.1667V9.16667V11V12.8333V14.6667V16.5V18.3333H18.3333H16.5ZM3.66667 18.3333H1.83333H0V16.5V14.6667V12.8333V11V9.16667V7.33333V5.5V3.66667H1.83333H3.66667V5.5V7.33333V9.16667V11V12.8333V14.6667V16.5V18.3333ZM18.3333 3.66667H16.5H14.6667H12.8333H11H9.16667H7.33333H5.5H3.66667V1.83333V0H5.5H7.33333H9.16667H11H12.8333H14.6667H16.5H18.3333H20.1667V1.83333V3.66667H18.3333Z" fill="black"/>
<path d="M38.8659 22H37.0326H35.1992H33.3659H31.5326H29.6992H27.8659H26.0326H24.1992H22.3659V20.1667V18.3333V16.5V14.6667V12.8333V11V9.16667V7.33333V5.5V3.66667V1.83333V0H24.1992H26.0326H27.8659H29.6992H31.5326H33.3659H35.1992H37.0326H38.8659H40.6992V1.83333V3.66667H38.8659H37.0326H35.1992H33.3659H31.5326H29.6992H27.8659H26.0326V5.5V7.33333H27.8659H29.6992H36.0454V9.16667V11H29.6992H27.8659H26.0326V12.8333V14.6667V16.5V18.3333H27.8659H29.6992H31.5326H33.3659H35.1992H37.0326H38.8659H40.6992V20.1667V22H38.8659Z" fill="black"/>
<path d="M59.3984 22H57.5651V20.1667V18.3333V16.5V14.6667V12.8333H55.7318H53.8984V11V9.16667H55.7318H57.5651V7.33333V5.5V3.66667V1.83333V0H59.3984H61.2318V1.83333V3.66667V5.5V7.33333V9.16667V11V12.8333V14.6667V16.5V18.3333V20.1667V22H59.3984ZM44.7318 22H42.8984V20.1667V18.3333V16.5V14.6667V12.8333V11V9.16667V7.33333V5.5V3.66667V1.83333V0H44.7318H46.5651V1.83333H48.3984H50.2318V3.66667V5.5H52.0651H53.8984V7.33333V9.16667H52.0651H50.2318V7.33333V5.5H48.3984H46.5651V7.33333V9.16667V11V12.8333V14.6667V16.5V18.3333V20.1667V22H44.7318Z" fill="black"/>
<path d="M127.448 0V22H123.271V8.06667L117.883 17.7594H115.077L109.593 7.97101V22H105.416V0H109.593L116.48 12.5942L123.271 0H127.448Z" fill="black"/>
<path d="M98.3253 17.7275H88.9833L87.3891 22H82.9253L91.9485 0H95.3601L104.383 22H99.9195L98.3253 17.7275ZM97.018 14.2522L93.6383 5.29275L90.2905 14.2522H97.018Z" fill="black"/>
<path d="M64.5306 0H73.1074C76.0408 0 78.3046 0.786473 79.8988 2.35942C81.5142 3.93237 82.3219 6.35556 82.3219 9.62899V12.3391C82.3219 15.6126 81.5036 18.0464 79.8669 19.6406C78.2302 21.2135 75.9239 22 72.948 22H64.5306V0ZM73.0756 18.3652C74.7973 18.3652 76.0727 17.887 76.9017 16.9304C77.7306 15.9527 78.1451 14.4222 78.1451 12.3391V9.85217C78.1451 7.68406 77.7306 6.11111 76.9017 5.13333C76.0727 4.1343 74.7973 3.63478 73.0756 3.63478H68.7075V18.3652H73.0756Z" fill="black"/>
</svg>
