<svg width="106" height="20" viewBox="0 0 106 20" fill="none" xmlns="http://www.w3.org/2000/svg">
<path d="M13.0271 19.0628H11.5167H10.0062H8.49572H6.98525H5.47478H3.96431V17.5524V16.0419H5.47478H6.98525H8.49572H10.0062H11.5167H13.0271H14.5376V17.5524V19.0628H13.0271ZM14.5376 16.0419V14.5314V13.0209V11.5105V10H13.0271H8.72811V8.48953V6.97906H13.0271H14.5376H16.0481H17.5586V8.48953V10V11.5105V13.0209V14.5314V16.0419H16.0481H14.5376ZM3.96431 16.0419H2.45383H0.943359V14.5314V13.0209V11.5105V10V8.48953V6.97906V5.46858V3.95811H2.45383H3.96431V5.46858V6.97906V8.48953V10V11.5105V13.0209V14.5314V16.0419ZM16.0481 3.95811H14.5376H13.0271H11.5167H10.0062H8.49572H6.98525H5.47478H3.96431V2.44764V0.937164H5.47478H6.98525H8.49572H10.0062H11.5167H13.0271H14.5376H16.0481H17.5586V2.44764V3.95811H16.0481Z" fill="white"/>
<path d="M32.9649 19.0628H31.4544H29.9439H28.4334H26.923H25.4125H23.902H22.3916H20.8811H19.3706V17.5524V16.0419V14.5314V13.0209V11.5105V10V8.48953V6.97906V5.46858V3.95811V2.44764V0.937164H20.8811H22.3916H23.902H25.4125H26.923H28.4334H29.9439H31.4544H32.9649H34.4753V2.44764V3.95811H32.9649H31.4544H29.9439H28.4334H26.923H25.4125H23.902H22.3916V5.46858V6.97906H23.902H25.4125H30.6411V8.48953V10H25.4125H23.902H22.3916V11.5105V13.0209V14.5314V16.0419H23.902H25.4125H26.923H28.4334H29.9439H31.4544H32.9649H34.4753V17.5524V19.0628H32.9649Z" fill="white"/>
<path d="M49.8814 19.0628H48.3709V17.5524V16.0419V14.5314V13.0209V11.5105H46.8604H45.3499V10V8.48953H46.8604H48.3709V6.97906V5.46858V3.95811V2.44764V0.937164H49.8814H51.3918V2.44764V3.95811V5.46858V6.97906V8.48953V10V11.5105V13.0209V14.5314V16.0419V17.5524V19.0628H49.8814ZM37.7976 19.0628H36.2871V17.5524V16.0419V14.5314V13.0209V11.5105V10V8.48953V6.97906V5.46858V3.95811V2.44764V0.937164H37.7976H39.3081V2.44764H40.8185H42.329V3.95811V5.46858H43.8395H45.3499V6.97906V8.48953H43.8395H42.329V6.97906V5.46858H40.8185H39.3081V6.97906V8.48953V10V11.5105V13.0209V14.5314V16.0419V17.5524V19.0628H37.7976Z" fill="white"/>
<path d="M105.947 0.937164V19.0628H102.506V7.58325L98.0664 15.5691H95.7547L91.2364 7.50444V19.0628H87.7952V0.937164H91.2364L96.9105 11.3135L102.506 0.937164H105.947Z" fill="white"/>
<path d="M81.9534 15.5428H74.2565L72.9431 19.0628H69.2654L76.6995 0.937164H79.5103L86.9445 19.0628H83.2668L81.9534 15.5428ZM80.8763 12.6795L78.0918 5.29783L75.3335 12.6795H80.8763Z" fill="white"/>
<path d="M54.1099 0.937164H61.1762C63.593 0.937164 65.4581 1.58514 66.7716 2.88108C68.1025 4.17702 68.768 6.17347 68.768 8.87043V11.1033C68.768 13.8003 68.0938 15.8055 66.7453 17.1189C65.3968 18.4149 63.4967 19.0628 61.0449 19.0628H54.1099V0.937164ZM61.15 16.0682C62.5685 16.0682 63.6193 15.6741 64.3023 14.8861C64.9853 14.0805 65.3268 12.8196 65.3268 11.1033V9.05432C65.3268 7.26802 64.9853 5.97208 64.3023 5.16649C63.6193 4.34339 62.5685 3.93184 61.15 3.93184H57.5511V16.0682H61.15Z" fill="white"/>
</svg>
