<svg width="21" height="10" viewBox="0 0 21 10" fill="none" xmlns="http://www.w3.org/2000/svg">
<path d="M20.2041 0H0.204082C0.0918367 0 0 0.0918367 0 0.204082V1.83673C0 1.94898 0.0918367 2.04082 0.204082 2.04082H20.2041C20.3163 2.04082 20.4082 1.94898 20.4082 1.83673V0.204082C20.4082 0.0918367 20.3163 0 20.2041 0ZM20.2041 7.95918H0.204082C0.0918367 7.95918 0 8.05102 0 8.16327V9.79592C0 9.90816 0.0918367 10 0.204082 10H20.2041C20.3163 10 20.4082 9.90816 20.4082 9.79592V8.16327C20.4082 8.05102 20.3163 7.95918 20.2041 7.95918Z" fill="black"/>
</svg>
