<svg width="100%" height="100%" viewBox="0 0 36 36" fill="none" xmlns="http://www.w3.org/2000/svg">
<rect x="0.5" y="0.5" width="35" height="35" rx="17.5" stroke="#4B5361" stroke-opacity="0.2"/>
<path d="M19.8605 24H16.2443C15.1899 24 14.4187 23.5578 14.1221 22.8C13.8147 22.0072 14.1005 21.0256 14.8367 20.3622L17.4255 18L14.8367 15.6378C14.1005 14.9744 13.8147 13.9901 14.1221 13.2C14.4187 12.4342 15.1873 12 16.2443 12H19.8605C20.9149 12 21.6861 12.4422 21.9828 13.2C22.2902 13.9928 22.0043 14.9744 21.2682 15.6378L18.6794 18L21.2735 20.3622C22.0043 21.0256 22.2956 22.0099 21.9882 22.8C21.6861 23.5578 20.9149 24 19.8605 24ZM18.0511 18.5636L15.4003 20.9744C14.9311 21.4031 14.7261 22.0288 14.9041 22.4926C15.0713 22.9213 15.5459 23.1613 16.2443 23.1613H19.8605C20.5589 23.1613 21.0335 22.9267 21.2007 22.4926C21.3787 22.0288 21.1792 21.4031 20.7046 20.9744L18.0511 18.5636ZM16.2443 12.836C15.5459 12.836 15.0713 13.0706 14.9041 13.5047C14.7261 13.9685 14.9257 14.5942 15.4003 15.0229L18.0511 17.4337L20.7019 15.0229C21.1711 14.5942 21.376 13.9685 21.198 13.5047C21.0308 13.076 20.5562 12.836 19.8578 12.836H16.2443Z" fill="#4B5361"/>
</svg>
